<svg width="57" height="27" viewBox="0 0 57 27" fill="none" xmlns="http://www.w3.org/2000/svg">
<path d="M23.0519 22.403C24.1959 23.965 25.5929 24.746 27.2429 24.746V26H15.9899V24.746C16.9799 24.746 17.6509 24.658 18.0029 24.482C18.3769 24.284 18.5639 24.02 18.5639 23.69C18.5639 23.536 18.5419 23.382 18.4979 23.228C18.4759 23.052 18.3989 22.843 18.2669 22.601C18.1569 22.359 17.9919 22.062 17.7719 21.71C17.5519 21.358 17.2549 20.896 16.8809 20.324L13.1189 14.714L10.2809 18.278C9.59894 19.136 9.02694 19.873 8.56494 20.489C8.10294 21.105 7.72894 21.633 7.44294 22.073C7.17894 22.513 6.98094 22.876 6.84894 23.162C6.73894 23.448 6.68394 23.69 6.68394 23.888C6.68394 24.218 6.87094 24.449 7.24494 24.581C7.61894 24.691 8.32294 24.746 9.35694 24.746V26H0.182943V24.746C0.710943 24.746 1.18394 24.691 1.60194 24.581C2.04194 24.471 2.47094 24.295 2.88894 24.053C3.30694 23.789 3.72494 23.448 4.14294 23.03C4.58294 22.59 5.05594 22.051 5.56194 21.413L12.0299 13.163L5.33094 4.022C4.78094 3.252 4.16494 2.702 3.48294 2.372C2.80094 2.02 1.98694 1.844 1.04094 1.844V0.589999H11.9969V1.844C10.5669 1.844 9.85194 2.273 9.85194 3.131C9.85194 3.681 10.1599 4.407 10.7759 5.309L14.3729 10.655L17.6069 6.563C18.2229 5.793 18.6519 5.166 18.8939 4.682C19.1359 4.198 19.2569 3.736 19.2569 3.296C19.2569 2.746 19.0699 2.372 18.6959 2.174C18.3439 1.954 17.7059 1.844 16.7819 1.844V0.589999H25.8569V1.844C25.3289 1.844 24.8669 1.888 24.4709 1.976C24.0969 2.042 23.7339 2.196 23.3819 2.438C23.0299 2.68 22.6449 3.032 22.2269 3.494C21.8089 3.956 21.3029 4.572 20.7089 5.342L15.4619 12.107L23.0519 22.403Z" fill="#242424"/>
</svg>
