<svg xmlns="http://www.w3.org/2000/svg" viewBox="0 0 115.06 55.62"><defs><style>.cls-1{fill:#414544;}</style></defs><g id="Ebene_2" data-name="Ebene 2"><g id="Ebene_1-2" data-name="Ebene 1"><path class="cls-1" d="M14.05,23.45a8.77,8.77,0,0,0-4.89-2.81,7.74,7.74,0,0,0-3.74,0A6.69,6.69,0,0,0,2.2,22.73a2.12,2.12,0,0,0-.72,1.09c-.09.34,0,.82.93,1.18l.14.05.1-.1a9.43,9.43,0,0,0,.75-.86,3.82,3.82,0,0,1,.84-.81,4.35,4.35,0,0,1,2.32-1.11,6.89,6.89,0,0,1,2.68.11,7.35,7.35,0,0,1,2.36,1A3.38,3.38,0,0,1,13,24.89,9.76,9.76,0,0,1,14,29c0,1.3.06,2.63.1,3.93l-2.34-.48a18.05,18.05,0,0,0-2.57-.33,9.14,9.14,0,0,0-4,.59A7.23,7.23,0,0,0,2,35.42,10.7,10.7,0,0,0,0,41.73c0,1.35,0,2.66,0,3.89s0,2.6,0,3.94A2.23,2.23,0,0,0,1.27,52l.48.48a1.8,1.8,0,0,0,.63.4,9.52,9.52,0,0,0,5.33,2.1,9.7,9.7,0,0,0,5.51-1.3l0,0a.56.56,0,0,1,.18-.12h0l.09,1a1.13,1.13,0,0,0,.28.76,1.2,1.2,0,0,0,.58.31,3.66,3.66,0,0,0,.92.08h.21l0-.21c0-.84.07-1.67.07-2.48V50.38c0-1.74,0-3.59,0-5.49s0-3.71,0-5.55.16-3.48.18-5.21,0-3.48-.18-5.21A9.6,9.6,0,0,0,14.05,23.45Zm.07,24.92a3.86,3.86,0,0,1-.51,2.41,6.34,6.34,0,0,1-1.76,1.89,6.42,6.42,0,0,1-2.39,1.06,3.93,3.93,0,0,1-2.3-.14l-2-.83-2-.83A2.39,2.39,0,0,1,1.84,49.8c0-1.47,0-3,0-4.48s0-2.93,0-4.39a6.11,6.11,0,0,1,.49-2.49,22.94,22.94,0,0,1,1.15-2.19A4.86,4.86,0,0,1,6,34.09a8.05,8.05,0,0,1,2.86-.51h.37a20.42,20.42,0,0,1,2.05.11,3.1,3.1,0,0,1,1.79.84,4.94,4.94,0,0,1,.87,1.12A2.22,2.22,0,0,1,14.12,37v6c0,.85,0,1.75-.07,2.68A15.37,15.37,0,0,0,14.12,48.37Z"/><path class="cls-1" d="M35.57,42.31a15.58,15.58,0,0,0-.67-1.56c-.25-.45-.53-.9-.81-1.33A4.42,4.42,0,0,0,33,38.29c-1.29-1.15-2.64-2.29-4-3.39s-2.75-2.17-4.14-3.23A4.89,4.89,0,0,1,24,30.6a5.25,5.25,0,0,1-.52-1.28,4.42,4.42,0,0,1,.7-3.5,11.21,11.21,0,0,1,2.42-2.74,2.34,2.34,0,0,1,1.63-.54A7.84,7.84,0,0,0,30,22.47a8,8,0,0,1,2.65.14,3,3,0,0,1,1.92,1.91l.17.36.22-.33c.75-1.09.82-1.47.8-1.68s-.37-.62-1-.91a13.25,13.25,0,0,0-6.44-1.18c-2,.2-3.83,1.41-5.46,3.58a6.29,6.29,0,0,0-1.21,4A4.71,4.71,0,0,0,23.22,32L27,35.21c1.24,1,2.54,2.11,3.86,3.13a8.89,8.89,0,0,1,2.69,3.27,13.81,13.81,0,0,1,1.15,4A6.18,6.18,0,0,1,34,49.44a6.58,6.58,0,0,1-2.35,2.64,5.88,5.88,0,0,1-2.59.88,7.4,7.4,0,0,1-2.62-.25,8.56,8.56,0,0,1-2.37-1.06A6.71,6.71,0,0,1,22.31,50a4.74,4.74,0,0,0-.38-.5,3.46,3.46,0,0,1-.41-.58l-.15-.25-.2.2c-.41.41-.56.77-.46,1.1a3.67,3.67,0,0,0,.36.79,8.72,8.72,0,0,0,7.3,4h.38a8.24,8.24,0,0,0,2.91-.53,6.84,6.84,0,0,0,2.7-1.88,9.33,9.33,0,0,0,2.09-3.91,7.9,7.9,0,0,0-.3-4.53C36,43.37,35.76,42.84,35.57,42.31Z"/><path class="cls-1" d="M50.94,53.4a1.14,1.14,0,0,0-.62-.4A7,7,0,0,1,46,50.19,11.35,11.35,0,0,1,44.3,45.4a29.64,29.64,0,0,1-.36-4.58V36.2c0-2.43,0-4.87.08-7.23l.14-7.16V12.94a2.15,2.15,0,0,1,.07-.6,3,3,0,0,1,.15-.49H49l0-.17c.17-.73.12-1.19-.15-1.42A1.64,1.64,0,0,0,47.77,10c-.86.1-1.68.05-2.52.14s-1.09-.35-1.09-1.15V7.16c0-.6,0-1.22.07-1.85.05-.82.09-1.64.11-2.44s.06-1.66.11-2.57l0-.3-.29.07a15.17,15.17,0,0,1-1.51.28l-.19,0V9.69c-.59.08-1.14.13-1.64.15s-1.11.06-1.65.11l-.29,0,.1.27c.27.71.64,1.1,1.09,1.16a8.53,8.53,0,0,0,1.18.08,1.29,1.29,0,0,1,.85.12.76.76,0,0,1,.36.63c.1.73.18,1.45.25,2.14a13.16,13.16,0,0,1,0,2.19c0,1.35-.05,2.71-.15,4.06a38.71,38.71,0,0,0-.07,4c.05,1.69,0,3.41-.07,5.11l-.29,5.12c-.1,1.68-.15,3.4-.15,5.14a35.18,35.18,0,0,0,.37,5.15,13,13,0,0,0,1.81,5.48,9.37,9.37,0,0,0,4.57,3.57,3.12,3.12,0,0,0,1.09.27,7.58,7.58,0,0,1,1.06.18l.17,0,.08-.16a2.93,2.93,0,0,0,.12-.28,2,2,0,0,1,.1-.23l.09-.17-.17-.11A2.13,2.13,0,0,1,50.94,53.4Z"/><path class="cls-1" d="M69.78,22.57a5.72,5.72,0,0,1,.62,0h.23v-.22a1.24,1.24,0,0,1,0-.31,2.09,2.09,0,0,0,0-.35v-.12l-.1-.06a3.82,3.82,0,0,0-2.62-.7l-2.47.3a9.21,9.21,0,0,0-2.61.67,24.5,24.5,0,0,0-2.36,1.11,10.74,10.74,0,0,0-2,1.78,23.57,23.57,0,0,1-1.73,1.74,12.89,12.89,0,0,1-.09-1.48c0-.6,0-1.21-.08-1.84A4.43,4.43,0,0,0,56.16,22c-.22-.37-.67-.51-1.35-.39l-.22,0,0,.21c.1.77.17,1.48.22,2.1s.07,1.28.07,1.94c-.1,4.55-.17,9.19-.22,13.78s-.1,9.23-.14,13.92a1.31,1.31,0,0,0,.38,1.15,1.09,1.09,0,0,0,.67.2,2.34,2.34,0,0,0,.69-.11l.13,0,0-.14q.08-.37.12-.78c0-.28,0-.57,0-.86,0-3.11-.06-6.23,0-9.27s0-6.18-.11-9.29a6.62,6.62,0,0,1,.35-2.89,26.94,26.94,0,0,1,1.08-2.67,10.29,10.29,0,0,1,4.41-4.95,13.56,13.56,0,0,1,6.8-1.32A4.75,4.75,0,0,0,69.78,22.57Z"/><path class="cls-1" d="M86.29,29.55a17.28,17.28,0,0,0-.84-3.31A8.55,8.55,0,0,0,80,20.79a5,5,0,0,0-2.09-.15,3.69,3.69,0,0,0-2,1,20.36,20.36,0,0,0-2.43,2.57,14.21,14.21,0,0,0-1.85,3.1,28.1,28.1,0,0,0-1.54,19.42,10.37,10.37,0,0,0,.67,1.82,5.78,5.78,0,0,0,1.12,1.61,10.82,10.82,0,0,0,4,3.19,22.63,22.63,0,0,0,4.78,1.54,2.59,2.59,0,0,0,.56,0,4.14,4.14,0,0,0,2.06-.62,5.06,5.06,0,0,0,2-1.94l.08-.16-.13-.12a1.59,1.59,0,0,0-1.15-.45,1.45,1.45,0,0,0-1,.61,3.15,3.15,0,0,1-2,1A6,6,0,0,1,79,53a13.11,13.11,0,0,1-4.36-2.11A7.46,7.46,0,0,1,72,47c-.24-.82-.49-1.62-.73-2.4a14,14,0,0,1-.5-2.35c-.09-1.34-.13-2.7-.11-4a11,11,0,0,1,.77-3.79l1.47-.14c.48,0,1-.07,1.49-.07,1.78.1,3.57.17,5.31.22s3.56.12,5.38.22a2.26,2.26,0,0,0,1.49-.23c.3-.23.38-.7.27-1.49C86.64,31.77,86.46,30.64,86.29,29.55Zm-1.36,3a34.91,34.91,0,0,1-6.51.19c-1.31-.09-2.64-.13-4-.13-.81,0-1.61,0-2.41.05a7.27,7.27,0,0,0,0-.75,2,2,0,0,1,.14-.71,16,16,0,0,1,4.66-8,3.58,3.58,0,0,1,1.74-1,2.65,2.65,0,0,1,1.85.62,9.69,9.69,0,0,1,1.38,1A6.34,6.34,0,0,1,83,25.27a11.19,11.19,0,0,1,1.39,3.49A28.77,28.77,0,0,1,84.93,32.59Z"/><path class="cls-1" d="M93.09,9.53a1.2,1.2,0,0,0-.8-.31,1,1,0,0,0-.68.4q-.37.44-.27.75a1.45,1.45,0,0,0,.43.69c.19.19.41.43.64.71l.2.24.16-.26c.24-.39.43-.69.58-.91s.28-.41.43-.61L94,10l-.27-.11A1.87,1.87,0,0,1,93.09,9.53Z"/><path class="cls-1" d="M93.46,22.46A1.48,1.48,0,0,0,93,21.29,1.73,1.73,0,0,0,91.6,21l-.19,0V23c0,1.45,0,2.93.11,4.37s.08,2.87,0,4.28c0,1.86,0,3.74-.08,5.6s-.09,3.73-.14,5.66c-.1,1.65-.17,3.33-.22,5s-.1,3.35-.14,5a4.73,4.73,0,0,0,.07,1.52c.12.55.66.83,1.6.83h.22v-.21c.09-1.89.19-3.75.29-5.57s.17-3.64.21-5.42c.05-2.17.09-4.34.11-6.44s0-4.29,0-6.36c0-1.46,0-2.94,0-4.4S93.46,24,93.46,22.46Z"/><path class="cls-1" d="M114.68,27.61a12.23,12.23,0,0,0-1.48-3.52,4.21,4.21,0,0,0-.92-1c-.35-.27-.72-.53-1.13-.79a7,7,0,0,0-4.69-.71,8.26,8.26,0,0,0-4.21,2.34,4.92,4.92,0,0,0-1,1.14,1.08,1.08,0,0,1-.9.54c-.17-.83-.3-1.5-.39-2a5,5,0,0,0-.35-1.22,1.09,1.09,0,0,0-.48-.54,1.75,1.75,0,0,0-.63-.09h-.22v8.72c-.1,2.7-.16,5.42-.18,8.08s-.09,5.38-.19,8.06c0,1.12-.09,2.26-.14,3.42s-.07,2.33-.07,3.48a2.23,2.23,0,0,0,.17,1.28c.29.6,1.2.35,1.49.26l.1,0,0-.09.16-.35a1.29,1.29,0,0,0,.08-.4c.1-3.42.19-6.75.26-9.89s.11-6.53.11-9.83a12.62,12.62,0,0,1,.28-3.36,18,18,0,0,1,1-3.09,8.08,8.08,0,0,1,5.37-4.74,4.62,4.62,0,0,1,3,.35,3.51,3.51,0,0,1,2,2.14,14.72,14.72,0,0,1,1.21,5.8c0,3.62,0,7.26-.1,10.83s-.16,7.17-.26,10.84a2.92,2.92,0,0,1-.07.61,2.84,2.84,0,0,0,0,.76,1,1,0,0,0,.34.65,1.31,1.31,0,0,0,.87.24,1.15,1.15,0,0,0,.89-.31.88.88,0,0,0,.17-.71,8.35,8.35,0,0,1-.11-1.32V45.45c.1-2.4.18-4.77.25-7.06s.11-4.69.11-7A13.21,13.21,0,0,0,114.68,27.61Z"/></g></g></svg>